<?xml version="1.0" encoding="utf-8"?>
<!-- Generator: Adobe Illustrator 19.0.0, SVG Export Plug-In . SVG Version: 6.00 Build 0)  -->
<svg version="1.1" id="Слой_1" xmlns="http://www.w3.org/2000/svg" xmlns:xlink="http://www.w3.org/1999/xlink" x="0px" y="0px"
	 viewBox="0 0 120 120" style="enable-background:new 0 0 120 120;" xml:space="preserve">
<style type="text/css">
	.st0{fill:#41AAE0;}
</style>
<g id="XMLID_2_">
	<path id="XMLID_4_" class="st0" d="M63.2,0c2.8,0,4.2,2.7,4.2,5.4c0,2.8-2.5,5.2-5.6,5.2c-12.7,0-25.5,0-38.2,0
		c-6.4,0-11.1,3.3-12.6,8.9c-0.4,1.4-0.5,3-0.5,4.5c0,24.2,0,48.4,0,72.7c0,8.3,4.9,13.2,13.2,13.2c24.1,0,48.3-0.1,72.4,0.1
		c8.6,0.1,13.4-6.3,13.2-13.3c-0.3-12.3-0.1-24.7-0.1-37c0-1,0,0.9,0,0c0-4.3,1.8-7,5.6-7c4.2,0,4.8,4.5,4.8,7.1c0,0.2,0,0,0,0
		c0,13.9,0,25.4,0,39.3c-0.1,0.4-0.3,0.7-0.4,1.1c-1.4,12-10.4,20-22.5,20c-24.8,0-49.5,0-74.3,0C9.7,120.1,0,110.4,0,97.7
		c0-25,0-50,0-75C0,12.2,6.8,3.5,17,0.9c1.2-0.3,2.4-0.6,3.6-0.9C34.8,0,63.2,0,63.2,0z"/>
	<path id="XMLID_3_" class="st0" d="M119.6,25.3c-1.6,2.9-4,4-7.3,3.8c-3.2-0.2-6.5,0-10.2,0c0,1.6,0,3.1,0,4.5c0,2.9,0.1,5.9,0,8.8
		c-0.1,3-2.3,5.1-5.2,5.1c-2.9,0-5.1-2.1-5.1-5.1c-0.1-3.6,0-7.2,0-10.7c0-0.8-0.1-1.6-0.1-2.6c-4.1,0-8.1,0-12,0
		c-2.3,0-4.2-0.9-5.3-3c-1.7-3.5,0.6-7.3,4.5-7.5c3.4-0.1,6.8,0,10.3,0c0.8,0,1.5,0,2.6,0c0-4.4,0-8.8,0-13.1c0-2.5,1.3-4.1,3.6-4.8
		c2.2-0.7,4.4-0.2,5.7,1.8c0.7,1,1,2.4,1,3.6c0.1,3.5,0,12.5,0,12.5s-1.6,0.1,0,0c2.9-0.1,7.8,0.2,10.6,0c3.3-0.2,5.5,0.9,6.8,3.9
		C119.6,23.4,119.6,24.4,119.6,25.3z"/>
</g>
</svg>
