<?xml version="1.0" encoding="utf-8"?>
<!-- Generator: Adobe Illustrator 19.0.0, SVG Export Plug-In . SVG Version: 6.00 Build 0)  -->
<svg version="1.1" id="Слой_1" xmlns="http://www.w3.org/2000/svg" xmlns:xlink="http://www.w3.org/1999/xlink" x="0px" y="0px"
	 viewBox="-282 405.9 30 30" style="enable-background:new -282 405.9 30 30;" xml:space="preserve">
<style type="text/css">
	.st0{fill:#3AA9E0;}
</style>
<g id="XMLID_1_">
	<path id="XMLID_34_" class="st0" d="M-266.2,435.9c-0.6,0-1.3,0-1.9,0c-0.5-0.1-1.1-0.2-1.6-0.3c-6-1.1-11-6-12-12
		c-0.1-0.6-0.2-1.2-0.3-1.8c0-0.6,0-1.2,0-1.7c0-0.1,0-0.2,0.1-0.3c0.2-2.7,1.1-5.2,2.7-7.5c2.3-3.3,5.5-5.4,9.5-6.1
		c0.6-0.1,1.2-0.2,1.8-0.3c0.6,0,1.2,0,1.7,0c0.7,0.1,1.5,0.2,2.2,0.3c5.9,1.2,10.7,6.1,11.7,12c0.1,0.6,0.2,1.2,0.3,1.8
		c0,0.6,0,1.2,0,1.7c-0.1,0.5-0.1,0.9-0.2,1.4c-0.9,6.1-5.7,11.2-11.7,12.4C-264.7,435.7-265.4,435.8-266.2,435.9z M-273.4,418.1
		c0.1,0.1,0.2,0.2,0.2,0.3c2,2,3.9,3.9,5.9,5.9c0.3,0.3,0.4,0.3,0.7,0c2-2,3.9-3.9,5.9-5.9c0.1-0.1,0.1-0.2,0.3-0.3
		c-1.3,0-2.5,0-3.7,0c0-1.9,0-3.7,0-5.6c-1.8,0-3.6,0-5.5,0c0,1.9,0,3.7,0,5.6C-270.9,418.1-272.1,418.1-273.4,418.1z M-273.4,428.2
		c4.3,0,8.6,0,12.8,0c0-0.6,0-1.2,0-1.7c-4.3,0-8.5,0-12.8,0C-273.4,427.1-273.4,427.7-273.4,428.2z"/>
</g>
</svg>
